# xmcd CD database file
#
# Track frame offsets:
#	150
#	14775
#	27590
#	44185
#	55712
#	67720
#	86462
#	100635
#	117625
#	133680
#	146440
#	159220
#	173147
#	184770
#	196885
#	212052
#	229752
#
# Disc length: 3242 seconds
#
# Revision: 1
# Processed by: cddbd v1.5.2PL0 Copyright (c) Steve Scherf et al.
# Submitted via: CDex 1.51
#
DISCID=eb0ca811
DTITLE=Freddy Quinn - Unter Fremden Sternen
DYEAR=1900
DGENRE=Country
TTITLE0=Junge, komm bald wieder
TTITLE1=Unter fremden Sternen
TTITLE2=Aloha OE
TTITLE3=Die Gitarre und das Meer
TTITLE4=Heut geht es an Bord
TTITLE5=La Paloma
TTITLE6=La Guitarra Brasiliana
TTITLE7=Der Junge von St. Pauli
TTITLE8=Heimweh
TTITLE9=Heimatlos
TTITLE10=Melodie der Nacht
TTITLE11=Vergangen, Vergessen, Vorüber
TTITLE12=Hundert Mann und ein Befehl
TTITLE13=Du musst alles vegessen
TTITLE14=Wieder auf der Reise
TTITLE15=Happy Birthday
TTITLE16=Irgendwann gibt`s ein Wiedersehen
EXTD=
EXTT0=
EXTT1=
EXTT2=
EXTT3=
EXTT4=
EXTT5=
EXTT6=
EXTT7=
EXTT8=
EXTT9=
EXTT10=
EXTT11=
EXTT12=
EXTT13=
EXTT14=
EXTT15=
EXTT16=
PLAYORDER=
